<svg width="194" height="35" viewBox="0 0 194 35" fill="none" xmlns="http://www.w3.org/2000/svg">
<path d="M27.2598 10.6728L6.81494 31.1175L0 24.3026L20.4449 3.85786L27.2598 10.6728Z" fill="#090909"/>
<path d="M23.3198 20.3626L30.1347 13.5477L40.842 24.2549L34.0271 31.0698L23.3198 20.3626Z" fill="#090909"/>
<path d="M61.7389 26.1006C60.5506 25.0672 59.939 23.6492 59.939 21.924C59.939 17.8222 63.1569 15.6378 67.7554 15.6378C69.0466 15.6548 70.3272 15.8747 71.5501 16.2894V15.0262C71.5501 13.1569 69.98 11.9205 67.8703 11.9205C65.9182 11.9205 64.4227 12.8418 63.4266 14.6417L60.4758 11.8831C61.8938 9.31412 64.8446 7.97354 67.9103 7.97354C72.7759 7.97354 75.9217 10.4277 75.9217 15.0636V27.2116H71.6303V25.7561C70.2123 27.0219 68.4097 27.6255 66.2653 27.6255C64.46 27.6335 62.9647 27.1368 61.7389 26.1006ZM67.1439 23.8014C68.9438 23.8014 70.4392 23.2673 71.5501 22.1991V20.0627C70.3032 19.5757 68.9792 19.3161 67.6407 19.2963C65.6111 19.2963 64.3078 20.1402 64.3078 21.633C64.3078 22.8827 65.3039 23.8014 67.1439 23.8014Z" fill="#090909"/>
<path d="M82.5204 25.8336V34.6461H78.1516V8.43021H82.4457V10.1179C83.7809 8.69992 85.5861 7.98156 87.7706 7.98156C90.4544 7.98156 92.6388 8.90287 94.3639 10.7802C96.0891 12.6575 96.9302 14.9942 96.9302 17.8302C96.9302 20.6663 96.0891 23.0056 94.3639 24.8829C92.6388 26.7603 90.4544 27.6415 87.7706 27.6415C85.8619 27.6782 84.0018 27.0377 82.5204 25.8336ZM91.1433 22.0763C92.0154 20.8436 92.4838 19.3709 92.4838 17.8609C92.4838 16.351 92.0154 14.8782 91.1433 13.6456C90.2532 12.4973 89.0274 11.9223 87.4661 11.9205C84.2455 11.9205 82.4457 14.4895 82.4457 17.8623C82.4457 21.2351 84.2455 23.8014 87.4661 23.8014C89.0363 23.8014 90.2621 23.2264 91.1433 22.0763Z" fill="#090909"/>
<path d="M103.072 25.8336V34.6461H98.7034V8.43021H102.998V10.1179C104.333 8.69992 106.138 7.98156 108.322 7.98156C111.006 7.98156 113.191 8.90287 114.916 10.7802C116.641 12.6575 117.482 14.9942 117.482 17.8302C117.482 20.6663 116.641 23.0056 114.916 24.8829C113.191 26.7603 111.006 27.6415 108.322 27.6415C106.414 27.6777 104.554 27.0373 103.072 25.8336ZM111.695 22.0763C112.569 20.8444 113.039 19.3713 113.039 17.8609C113.039 16.3505 112.569 14.8775 111.695 13.6456C110.814 12.4973 109.588 11.9223 108.018 11.9205C104.797 11.9205 102.998 14.4895 102.998 17.8623C102.998 21.2351 104.797 23.8014 108.018 23.8014C109.586 23.8014 110.816 23.2264 111.706 22.0763H111.695Z" fill="#090909"/>
<path d="M136.958 19.1254H124.118C124.31 21.924 126.255 23.6865 129.061 23.6865C131.094 23.6865 132.705 22.8053 133.892 21.0428L136.843 23.8014C134.848 26.3704 132.244 27.6335 129.061 27.6335C126.265 27.6335 123.966 26.7522 122.241 24.963C120.516 23.1738 119.634 20.8238 119.634 17.9477C119.634 15.1517 120.436 12.775 122.011 10.8577C123.587 8.94026 125.766 7.98423 128.42 7.98423C134.514 7.98423 137.006 12.8525 137.006 17.5979L136.958 19.1254ZM124.348 15.6378H132.359C132.322 13.683 131.096 11.9606 128.452 11.9606C126.15 11.9606 124.77 13.6216 124.348 15.6378Z" fill="#090909"/>
<path d="M149.992 27.2116H142.713C142.481 27.2119 142.251 27.1666 142.037 27.0782C141.823 26.9898 141.629 26.86 141.465 26.6963C141.301 26.5326 141.171 26.3382 141.082 26.1241C140.993 25.9101 140.947 25.6807 140.947 25.4491V12.3424H137.767V8.43285H140.947V3.18275H145.276V8.43285H156.391V12.3424H154.206H145.276V23.075H149.992V27.2116Z" fill="#090909"/>
<path d="M154.473 0.803356C154.994 0.288676 155.696 0 156.428 0C157.16 0 157.862 0.288676 158.383 0.803356C158.638 1.05701 158.841 1.35867 158.979 1.69095C159.117 2.02322 159.188 2.37955 159.188 2.73944C159.188 3.09933 159.117 3.45566 158.979 3.78794C158.841 4.12021 158.638 4.42187 158.383 4.67553C157.863 5.1915 157.161 5.48107 156.428 5.48107C155.696 5.48107 154.993 5.1915 154.473 4.67553C154.219 4.42151 154.017 4.11974 153.879 3.78751C153.741 3.45529 153.67 3.09913 153.67 2.73944C153.67 2.37975 153.741 2.02359 153.879 1.69137C154.017 1.35914 154.219 1.05737 154.473 0.803356ZM154.206 27.2089V12.3424V8.43021H158.575V27.2089H154.206Z" fill="#090909"/>
<path d="M160.842 8.43285H175.137V12.1502L165.978 23.2646H175.591V27.2116H160.637V23.5023L169.716 12.3504H160.842V8.43285Z" fill="#090909"/>
<path d="M193.932 19.1254H181.092C181.285 21.924 183.229 23.6865 186.035 23.6865C188.067 23.6865 189.676 22.8053 190.864 21.0428L193.817 23.8014C191.822 26.3704 189.216 27.6335 186.035 27.6335C183.239 27.6335 180.94 26.7522 179.215 24.963C177.49 23.1738 176.609 20.8238 176.609 17.9477C176.609 15.1517 177.41 12.775 178.985 10.8577C180.561 8.94026 182.74 7.98423 185.395 7.98423C191.489 7.98423 193.98 12.8525 193.98 17.5979L193.932 19.1254ZM181.322 15.6378H189.333C189.296 13.683 188.07 11.9606 185.427 11.9606C183.125 11.9606 181.744 13.6216 181.322 15.6378Z" fill="#090909"/>
</svg>
