<svg width="235" height="74" viewBox="0 0 235 74" fill="none" xmlns="http://www.w3.org/2000/svg">
<path d="M224.306 0.810547H9.82879C4.4005 0.810547 0 5.26336 0 10.7562V63.668C0 69.1608 4.4005 73.6137 9.82879 73.6137H224.306C229.734 73.6137 234.135 69.1608 234.135 63.668V10.7562C234.135 5.26336 229.734 0.810547 224.306 0.810547Z" fill="#2E2E2E"/>
<path d="M88.6934 15.498L85.8691 23.2734H84.7148L87.9668 14.7422H88.7109L88.6934 15.498ZM91.0605 23.2734L88.2305 15.498L88.2129 14.7422H88.957L92.2207 23.2734H91.0605ZM90.9141 20.1152V21.041H86.1211V20.1152H90.9141ZM94.834 22.2949L96.5684 16.9336H97.6758L95.3965 23.2734H94.6699L94.834 22.2949ZM93.3867 16.9336L95.1738 22.3242L95.2969 23.2734H94.5703L92.2734 16.9336H93.3867ZM102.363 22.1895V18.9258C102.363 18.6758 102.312 18.459 102.211 18.2754C102.113 18.0879 101.965 17.9434 101.766 17.8418C101.566 17.7402 101.32 17.6895 101.027 17.6895C100.754 17.6895 100.514 17.7363 100.307 17.8301C100.104 17.9238 99.9434 18.0469 99.8262 18.1992C99.7129 18.3516 99.6562 18.5156 99.6562 18.6914H98.5723C98.5723 18.4648 98.6309 18.2402 98.748 18.0176C98.8652 17.7949 99.0332 17.5938 99.252 17.4141C99.4746 17.2305 99.7402 17.0859 100.049 16.9805C100.361 16.8711 100.709 16.8164 101.092 16.8164C101.553 16.8164 101.959 16.8945 102.311 17.0508C102.666 17.207 102.943 17.4434 103.143 17.7598C103.346 18.0723 103.447 18.4648 103.447 18.9375V21.8906C103.447 22.1016 103.465 22.3262 103.5 22.5645C103.539 22.8027 103.596 23.0078 103.67 23.1797V23.2734H102.539C102.484 23.1484 102.441 22.9824 102.41 22.7754C102.379 22.5645 102.363 22.3691 102.363 22.1895ZM102.551 19.4297L102.562 20.1914H101.467C101.158 20.1914 100.883 20.2168 100.641 20.2676C100.398 20.3145 100.195 20.3867 100.031 20.4844C99.8672 20.582 99.7422 20.7051 99.6562 20.8535C99.5703 20.998 99.5273 21.168 99.5273 21.3633C99.5273 21.5625 99.5723 21.7441 99.6621 21.9082C99.752 22.0723 99.8867 22.2031 100.066 22.3008C100.25 22.3945 100.475 22.4414 100.74 22.4414C101.072 22.4414 101.365 22.3711 101.619 22.2305C101.873 22.0898 102.074 21.918 102.223 21.7148C102.375 21.5117 102.457 21.3145 102.469 21.123L102.932 21.6445C102.904 21.8086 102.83 21.9902 102.709 22.1895C102.588 22.3887 102.426 22.5801 102.223 22.7637C102.023 22.9434 101.785 23.0938 101.508 23.2148C101.234 23.332 100.926 23.3906 100.582 23.3906C100.152 23.3906 99.7754 23.3066 99.4512 23.1387C99.1309 22.9707 98.8809 22.7461 98.7012 22.4648C98.5254 22.1797 98.4375 21.8613 98.4375 21.5098C98.4375 21.1699 98.5039 20.8711 98.6367 20.6133C98.7695 20.3516 98.9609 20.1348 99.2109 19.9629C99.4609 19.7871 99.7617 19.6543 100.113 19.5645C100.465 19.4746 100.857 19.4297 101.291 19.4297H102.551ZM106.33 16.9336V23.2734H105.24V16.9336H106.33ZM105.158 15.252C105.158 15.0762 105.211 14.9277 105.316 14.8066C105.426 14.6855 105.586 14.625 105.797 14.625C106.004 14.625 106.162 14.6855 106.271 14.8066C106.385 14.9277 106.441 15.0762 106.441 15.252C106.441 15.4199 106.385 15.5645 106.271 15.6855C106.162 15.8027 106.004 15.8613 105.797 15.8613C105.586 15.8613 105.426 15.8027 105.316 15.6855C105.211 15.5645 105.158 15.4199 105.158 15.252ZM109.248 14.2734V23.2734H108.158V14.2734H109.248ZM114.727 22.1895V18.9258C114.727 18.6758 114.676 18.459 114.574 18.2754C114.477 18.0879 114.328 17.9434 114.129 17.8418C113.93 17.7402 113.684 17.6895 113.391 17.6895C113.117 17.6895 112.877 17.7363 112.67 17.8301C112.467 17.9238 112.307 18.0469 112.189 18.1992C112.076 18.3516 112.02 18.5156 112.02 18.6914H110.936C110.936 18.4648 110.994 18.2402 111.111 18.0176C111.229 17.7949 111.396 17.5938 111.615 17.4141C111.838 17.2305 112.104 17.0859 112.412 16.9805C112.725 16.8711 113.072 16.8164 113.455 16.8164C113.916 16.8164 114.322 16.8945 114.674 17.0508C115.029 17.207 115.307 17.4434 115.506 17.7598C115.709 18.0723 115.811 18.4648 115.811 18.9375V21.8906C115.811 22.1016 115.828 22.3262 115.863 22.5645C115.902 22.8027 115.959 23.0078 116.033 23.1797V23.2734H114.902C114.848 23.1484 114.805 22.9824 114.773 22.7754C114.742 22.5645 114.727 22.3691 114.727 22.1895ZM114.914 19.4297L114.926 20.1914H113.83C113.521 20.1914 113.246 20.2168 113.004 20.2676C112.762 20.3145 112.559 20.3867 112.395 20.4844C112.23 20.582 112.105 20.7051 112.02 20.8535C111.934 20.998 111.891 21.168 111.891 21.3633C111.891 21.5625 111.936 21.7441 112.025 21.9082C112.115 22.0723 112.25 22.2031 112.43 22.3008C112.613 22.3945 112.838 22.4414 113.104 22.4414C113.436 22.4414 113.729 22.3711 113.982 22.2305C114.236 22.0898 114.438 21.918 114.586 21.7148C114.738 21.5117 114.82 21.3145 114.832 21.123L115.295 21.6445C115.268 21.8086 115.193 21.9902 115.072 22.1895C114.951 22.3887 114.789 22.5801 114.586 22.7637C114.387 22.9434 114.148 23.0938 113.871 23.2148C113.598 23.332 113.289 23.3906 112.945 23.3906C112.516 23.3906 112.139 23.3066 111.814 23.1387C111.494 22.9707 111.244 22.7461 111.064 22.4648C110.889 22.1797 110.801 21.8613 110.801 21.5098C110.801 21.1699 110.867 20.8711 111 20.6133C111.133 20.3516 111.324 20.1348 111.574 19.9629C111.824 19.7871 112.125 19.6543 112.477 19.5645C112.828 19.4746 113.221 19.4297 113.654 19.4297H114.914ZM117.51 14.2734H118.6V22.043L118.506 23.2734H117.51V14.2734ZM122.883 20.0508V20.1738C122.883 20.6348 122.828 21.0625 122.719 21.457C122.609 21.8477 122.449 22.1875 122.238 22.4766C122.027 22.7656 121.77 22.9902 121.465 23.1504C121.16 23.3105 120.811 23.3906 120.416 23.3906C120.014 23.3906 119.66 23.3223 119.355 23.1855C119.055 23.0449 118.801 22.8438 118.594 22.582C118.387 22.3203 118.221 22.0039 118.096 21.6328C117.975 21.2617 117.891 20.8438 117.844 20.3789V19.8398C117.891 19.3711 117.975 18.9512 118.096 18.5801C118.221 18.209 118.387 17.8926 118.594 17.6309C118.801 17.3652 119.055 17.1641 119.355 17.0273C119.656 16.8867 120.006 16.8164 120.404 16.8164C120.803 16.8164 121.156 16.8945 121.465 17.0508C121.773 17.2031 122.031 17.4219 122.238 17.707C122.449 17.9922 122.609 18.334 122.719 18.7324C122.828 19.127 122.883 19.5664 122.883 20.0508ZM121.793 20.1738V20.0508C121.793 19.7344 121.764 19.4375 121.705 19.1602C121.646 18.8789 121.553 18.6328 121.424 18.4219C121.295 18.207 121.125 18.0391 120.914 17.918C120.703 17.793 120.443 17.7305 120.135 17.7305C119.861 17.7305 119.623 17.7773 119.42 17.8711C119.221 17.9648 119.051 18.0918 118.91 18.252C118.77 18.4082 118.654 18.5879 118.564 18.791C118.479 18.9902 118.414 19.1973 118.371 19.4121V20.8242C118.434 21.0977 118.535 21.3613 118.676 21.6152C118.82 21.8652 119.012 22.0703 119.25 22.2305C119.492 22.3906 119.791 22.4707 120.146 22.4707C120.439 22.4707 120.689 22.4121 120.896 22.2949C121.107 22.1738 121.277 22.0078 121.406 21.7969C121.539 21.5859 121.637 21.3418 121.699 21.0645C121.762 20.7871 121.793 20.4902 121.793 20.1738ZM125.432 14.2734V23.2734H124.342V14.2734H125.432ZM129.803 23.3906C129.361 23.3906 128.961 23.3164 128.602 23.168C128.246 23.0156 127.939 22.8027 127.682 22.5293C127.428 22.2559 127.232 21.9316 127.096 21.5566C126.959 21.1816 126.891 20.7715 126.891 20.3262V20.0801C126.891 19.5645 126.967 19.1055 127.119 18.7031C127.271 18.2969 127.479 17.9531 127.74 17.6719C128.002 17.3906 128.299 17.1777 128.631 17.0332C128.963 16.8887 129.307 16.8164 129.662 16.8164C130.115 16.8164 130.506 16.8945 130.834 17.0508C131.166 17.207 131.438 17.4258 131.648 17.707C131.859 17.9844 132.016 18.3125 132.117 18.6914C132.219 19.0664 132.27 19.4766 132.27 19.9219V20.4082H127.535V19.5234H131.186V19.4414C131.17 19.1602 131.111 18.8867 131.01 18.6211C130.912 18.3555 130.756 18.1367 130.541 17.9648C130.326 17.793 130.033 17.707 129.662 17.707C129.416 17.707 129.189 17.7598 128.982 17.8652C128.775 17.9668 128.598 18.1191 128.449 18.3223C128.301 18.5254 128.186 18.7734 128.104 19.0664C128.021 19.3594 127.98 19.6973 127.98 20.0801V20.3262C127.98 20.627 128.021 20.9102 128.104 21.1758C128.189 21.4375 128.312 21.668 128.473 21.8672C128.637 22.0664 128.834 22.2227 129.064 22.3359C129.299 22.4492 129.564 22.5059 129.861 22.5059C130.244 22.5059 130.568 22.4277 130.834 22.2715C131.1 22.1152 131.332 21.9062 131.531 21.6445L132.188 22.166C132.051 22.373 131.877 22.5703 131.666 22.7578C131.455 22.9453 131.195 23.0977 130.887 23.2148C130.582 23.332 130.221 23.3906 129.803 23.3906ZM136.225 20.1738V20.0391C136.225 19.582 136.291 19.1582 136.424 18.7676C136.557 18.373 136.748 18.0312 136.998 17.7422C137.248 17.4492 137.551 17.2227 137.906 17.0625C138.262 16.8984 138.66 16.8164 139.102 16.8164C139.547 16.8164 139.947 16.8984 140.303 17.0625C140.662 17.2227 140.967 17.4492 141.217 17.7422C141.471 18.0312 141.664 18.373 141.797 18.7676C141.93 19.1582 141.996 19.582 141.996 20.0391V20.1738C141.996 20.6309 141.93 21.0547 141.797 21.4453C141.664 21.8359 141.471 22.1777 141.217 22.4707C140.967 22.7598 140.664 22.9863 140.309 23.1504C139.957 23.3105 139.559 23.3906 139.113 23.3906C138.668 23.3906 138.268 23.3105 137.912 23.1504C137.557 22.9863 137.252 22.7598 136.998 22.4707C136.748 22.1777 136.557 21.8359 136.424 21.4453C136.291 21.0547 136.225 20.6309 136.225 20.1738ZM137.309 20.0391V20.1738C137.309 20.4902 137.346 20.7891 137.42 21.0703C137.494 21.3477 137.605 21.5938 137.754 21.8086C137.906 22.0234 138.096 22.1934 138.322 22.3184C138.549 22.4395 138.812 22.5 139.113 22.5C139.41 22.5 139.67 22.4395 139.893 22.3184C140.119 22.1934 140.307 22.0234 140.455 21.8086C140.604 21.5938 140.715 21.3477 140.789 21.0703C140.867 20.7891 140.906 20.4902 140.906 20.1738V20.0391C140.906 19.7266 140.867 19.4316 140.789 19.1543C140.715 18.873 140.602 18.625 140.449 18.4102C140.301 18.1914 140.113 18.0195 139.887 17.8945C139.664 17.7695 139.402 17.707 139.102 17.707C138.805 17.707 138.543 17.7695 138.316 17.8945C138.094 18.0195 137.906 18.1914 137.754 18.4102C137.605 18.625 137.494 18.873 137.42 19.1543C137.346 19.4316 137.309 19.7266 137.309 20.0391ZM144.439 18.2871V23.2734H143.355V16.9336H144.381L144.439 18.2871ZM144.182 19.8633L143.73 19.8457C143.734 19.4121 143.799 19.0117 143.924 18.6445C144.049 18.2734 144.225 17.9512 144.451 17.6777C144.678 17.4043 144.947 17.1934 145.26 17.0449C145.576 16.8926 145.926 16.8164 146.309 16.8164C146.621 16.8164 146.902 16.8594 147.152 16.9453C147.402 17.0273 147.615 17.1602 147.791 17.3438C147.971 17.5273 148.107 17.7656 148.201 18.0586C148.295 18.3477 148.342 18.7012 148.342 19.1191V23.2734H147.252V19.1074C147.252 18.7754 147.203 18.5098 147.105 18.3105C147.008 18.1074 146.865 17.9609 146.678 17.8711C146.49 17.7773 146.26 17.7305 145.986 17.7305C145.717 17.7305 145.471 17.7871 145.248 17.9004C145.029 18.0137 144.84 18.1699 144.68 18.3691C144.523 18.5684 144.4 18.7969 144.311 19.0547C144.225 19.3086 144.182 19.5781 144.182 19.8633ZM155.619 16.9336V17.7656H152.191V16.9336H155.619ZM153.352 15.3926H154.436V21.7031C154.436 21.918 154.469 22.0801 154.535 22.1895C154.602 22.2988 154.688 22.3711 154.793 22.4062C154.898 22.4414 155.012 22.459 155.133 22.459C155.223 22.459 155.316 22.4512 155.414 22.4355C155.516 22.416 155.592 22.4004 155.643 22.3887L155.648 23.2734C155.562 23.3008 155.449 23.3262 155.309 23.3496C155.172 23.377 155.006 23.3906 154.811 23.3906C154.545 23.3906 154.301 23.3379 154.078 23.2324C153.855 23.127 153.678 22.9512 153.545 22.7051C153.416 22.4551 153.352 22.1191 153.352 21.6973V15.3926ZM157.975 14.2734V23.2734H156.891V14.2734H157.975ZM157.717 19.8633L157.266 19.8457C157.27 19.4121 157.334 19.0117 157.459 18.6445C157.584 18.2734 157.76 17.9512 157.986 17.6777C158.213 17.4043 158.482 17.1934 158.795 17.0449C159.111 16.8926 159.461 16.8164 159.844 16.8164C160.156 16.8164 160.438 16.8594 160.688 16.9453C160.938 17.0273 161.15 17.1602 161.326 17.3438C161.506 17.5273 161.643 17.7656 161.736 18.0586C161.83 18.3477 161.877 18.7012 161.877 19.1191V23.2734H160.787V19.1074C160.787 18.7754 160.738 18.5098 160.641 18.3105C160.543 18.1074 160.4 17.9609 160.213 17.8711C160.025 17.7773 159.795 17.7305 159.521 17.7305C159.252 17.7305 159.006 17.7871 158.783 17.9004C158.564 18.0137 158.375 18.1699 158.215 18.3691C158.059 18.5684 157.936 18.7969 157.846 19.0547C157.76 19.3086 157.717 19.5781 157.717 19.8633ZM166.131 23.3906C165.689 23.3906 165.289 23.3164 164.93 23.168C164.574 23.0156 164.268 22.8027 164.01 22.5293C163.756 22.2559 163.561 21.9316 163.424 21.5566C163.287 21.1816 163.219 20.7715 163.219 20.3262V20.0801C163.219 19.5645 163.295 19.1055 163.447 18.7031C163.6 18.2969 163.807 17.9531 164.068 17.6719C164.33 17.3906 164.627 17.1777 164.959 17.0332C165.291 16.8887 165.635 16.8164 165.99 16.8164C166.443 16.8164 166.834 16.8945 167.162 17.0508C167.494 17.207 167.766 17.4258 167.977 17.707C168.188 17.9844 168.344 18.3125 168.445 18.6914C168.547 19.0664 168.598 19.4766 168.598 19.9219V20.4082H163.863V19.5234H167.514V19.4414C167.498 19.1602 167.439 18.8867 167.338 18.6211C167.24 18.3555 167.084 18.1367 166.869 17.9648C166.654 17.793 166.361 17.707 165.99 17.707C165.744 17.707 165.518 17.7598 165.311 17.8652C165.104 17.9668 164.926 18.1191 164.777 18.3223C164.629 18.5254 164.514 18.7734 164.432 19.0664C164.35 19.3594 164.309 19.6973 164.309 20.0801V20.3262C164.309 20.627 164.35 20.9102 164.432 21.1758C164.518 21.4375 164.641 21.668 164.801 21.8672C164.965 22.0664 165.162 22.2227 165.393 22.3359C165.627 22.4492 165.893 22.5059 166.189 22.5059C166.572 22.5059 166.896 22.4277 167.162 22.2715C167.428 22.1152 167.66 21.9062 167.859 21.6445L168.516 22.166C168.379 22.373 168.205 22.5703 167.994 22.7578C167.783 22.9453 167.523 23.0977 167.215 23.2148C166.91 23.332 166.549 23.3906 166.131 23.3906Z" fill="white"/>
<path d="M91.1215 34.7015L86.8756 47.0195H84.3085L89.6574 32.8079H91.2972L91.1215 34.7015ZM94.6744 47.0195L90.4187 34.7015L90.2333 32.8079H91.8828L97.2513 47.0195H94.6744ZM94.4694 41.7487V43.6911H86.7389V41.7487H94.4694ZM100.794 38.4886V51.08H98.4421V36.4584H100.609L100.794 38.4886ZM107.676 41.6414V41.8463C107.676 42.6142 107.585 43.3267 107.402 43.9839C107.227 44.6347 106.963 45.204 106.612 45.6921C106.267 46.1736 105.841 46.5478 105.333 46.8146C104.826 47.0813 104.24 47.2147 103.576 47.2147C102.919 47.2147 102.343 47.0944 101.849 46.8536C101.361 46.6063 100.947 46.2582 100.609 45.8092C100.271 45.3602 99.9973 44.8331 99.789 44.228C99.5873 43.6163 99.4442 42.946 99.3596 42.2172V41.4266C99.4442 40.6523 99.5873 39.9495 99.789 39.3183C99.9973 38.6871 100.271 38.1438 100.609 37.6883C100.947 37.2328 101.361 36.8814 101.849 36.6341C102.337 36.3868 102.906 36.2632 103.557 36.2632C104.22 36.2632 104.809 36.3933 105.323 36.6536C105.837 36.9074 106.27 37.2718 106.622 37.7468C106.973 38.2153 107.236 38.7815 107.412 39.4452C107.588 40.1024 107.676 40.8345 107.676 41.6414ZM105.323 41.8463V41.6414C105.323 41.1533 105.278 40.7011 105.187 40.2846C105.096 39.8617 104.952 39.4907 104.757 39.1719C104.562 38.853 104.312 38.6058 104.006 38.4301C103.706 38.2479 103.345 38.1568 102.922 38.1568C102.506 38.1568 102.148 38.2284 101.849 38.3715C101.549 38.5082 101.299 38.7001 101.097 38.9474C100.895 39.1947 100.739 39.4842 100.628 39.8161C100.518 40.1415 100.44 40.4961 100.394 40.88V42.7736C100.472 43.2421 100.606 43.6716 100.794 44.062C100.983 44.4525 101.25 44.7648 101.595 44.9991C101.946 45.2268 102.395 45.3407 102.942 45.3407C103.365 45.3407 103.726 45.2496 104.025 45.0674C104.325 44.8852 104.569 44.6347 104.757 44.3158C104.952 43.9904 105.096 43.6163 105.187 43.1933C105.278 42.7704 105.323 42.3214 105.323 41.8463ZM112.039 38.4886V51.08H109.686V36.4584H111.853L112.039 38.4886ZM118.92 41.6414V41.8463C118.92 42.6142 118.829 43.3267 118.647 43.9839C118.471 44.6347 118.208 45.204 117.856 45.6921C117.511 46.1736 117.085 46.5478 116.578 46.8146C116.07 47.0813 115.484 47.2147 114.821 47.2147C114.163 47.2147 113.587 47.0944 113.093 46.8536C112.605 46.6063 112.192 46.2582 111.853 45.8092C111.515 45.3602 111.242 44.8331 111.033 44.228C110.832 43.6163 110.689 42.946 110.604 42.2172V41.4266C110.689 40.6523 110.832 39.9495 111.033 39.3183C111.242 38.6871 111.515 38.1438 111.853 37.6883C112.192 37.2328 112.605 36.8814 113.093 36.6341C113.581 36.3868 114.15 36.2632 114.801 36.2632C115.465 36.2632 116.054 36.3933 116.568 36.6536C117.082 36.9074 117.515 37.2718 117.866 37.7468C118.217 38.2153 118.481 38.7815 118.657 39.4452C118.832 40.1024 118.92 40.8345 118.92 41.6414ZM116.568 41.8463V41.6414C116.568 41.1533 116.522 40.7011 116.431 40.2846C116.34 39.8617 116.197 39.4907 116.002 39.1719C115.806 38.853 115.556 38.6058 115.25 38.4301C114.951 38.2479 114.59 38.1568 114.167 38.1568C113.75 38.1568 113.392 38.2284 113.093 38.3715C112.794 38.5082 112.543 38.7001 112.341 38.9474C112.14 39.1947 111.983 39.4842 111.873 39.8161C111.762 40.1415 111.684 40.4961 111.639 40.88V42.7736C111.717 43.2421 111.85 43.6716 112.039 44.062C112.227 44.4525 112.494 44.7648 112.839 44.9991C113.191 45.2268 113.64 45.3407 114.186 45.3407C114.609 45.3407 114.97 45.2496 115.27 45.0674C115.569 44.8852 115.813 44.6347 116.002 44.3158C116.197 43.9904 116.34 43.6163 116.431 43.1933C116.522 42.7704 116.568 42.3214 116.568 41.8463ZM133.61 43.3593C133.61 43.0664 133.564 42.8061 133.473 42.5784C133.389 42.3506 133.236 42.1424 133.015 41.9537C132.793 41.765 132.481 41.5828 132.078 41.4071C131.681 41.2249 131.173 41.0394 130.555 40.8507C129.878 40.6425 129.253 40.4115 128.681 40.1577C128.115 39.8974 127.62 39.5981 127.197 39.2597C126.774 38.9149 126.446 38.5212 126.211 38.0787C125.977 37.6297 125.86 37.1124 125.86 36.5267C125.86 35.9476 125.98 35.4205 126.221 34.9455C126.468 34.4705 126.817 34.0605 127.266 33.7156C127.721 33.3643 128.258 33.0942 128.876 32.9055C129.494 32.7103 130.177 32.6127 130.926 32.6127C131.98 32.6127 132.888 32.8079 133.649 33.1983C134.417 33.5888 135.006 34.1126 135.416 34.7698C135.832 35.427 136.04 36.1526 136.04 36.9464H133.61C133.61 36.4779 133.509 36.0647 133.307 35.7068C133.112 35.3424 132.813 35.0561 132.409 34.8479C132.013 34.6397 131.508 34.5355 130.897 34.5355C130.317 34.5355 129.836 34.6234 129.452 34.7991C129.068 34.9748 128.782 35.2123 128.593 35.5116C128.404 35.8109 128.31 36.1493 128.31 36.5267C128.31 36.7935 128.372 37.0375 128.495 37.2588C128.619 37.4735 128.808 37.6752 129.062 37.864C129.315 38.0462 129.634 38.2186 130.018 38.3813C130.402 38.544 130.854 38.7001 131.375 38.8498C132.162 39.084 132.849 39.3443 133.434 39.6306C134.02 39.9105 134.508 40.2293 134.898 40.5872C135.289 40.9451 135.582 41.3518 135.777 41.8073C135.972 42.2563 136.07 42.7671 136.07 43.3397C136.07 43.9384 135.949 44.4785 135.709 44.96C135.468 45.435 135.123 45.8417 134.674 46.1801C134.231 46.512 133.698 46.769 133.073 46.9512C132.455 47.1269 131.765 47.2147 131.004 47.2147C130.321 47.2147 129.647 47.1236 128.983 46.9414C128.326 46.7592 127.728 46.4827 127.187 46.1118C126.647 45.7344 126.218 45.2659 125.899 44.7062C125.58 44.1401 125.421 43.4796 125.421 42.7248H127.871C127.871 43.1868 127.949 43.5805 128.105 43.9059C128.268 44.2312 128.492 44.498 128.778 44.7062C129.065 44.908 129.397 45.0576 129.774 45.1552C130.158 45.2528 130.568 45.3016 131.004 45.3016C131.577 45.3016 132.055 45.2203 132.439 45.0576C132.829 44.8949 133.122 44.6672 133.317 44.3744C133.512 44.0815 133.61 43.7432 133.61 43.3593ZM142.844 36.4584V38.1763H136.89V36.4584H142.844ZM138.608 33.8718H140.96V44.1011C140.96 44.4264 141.005 44.677 141.097 44.8526C141.194 45.0218 141.328 45.1357 141.497 45.1943C141.666 45.2528 141.864 45.2821 142.092 45.2821C142.255 45.2821 142.411 45.2724 142.561 45.2528C142.71 45.2333 142.831 45.2138 142.922 45.1943L142.932 46.9902C142.736 47.0488 142.509 47.1009 142.248 47.1464C141.994 47.192 141.702 47.2147 141.37 47.2147C140.83 47.2147 140.351 47.1204 139.935 46.9317C139.519 46.7365 139.193 46.4209 138.959 45.9849C138.725 45.5489 138.608 44.9698 138.608 44.2475V33.8718ZM143.976 41.8561V41.6316C143.976 40.8703 144.087 40.1642 144.308 39.5135C144.529 38.8563 144.848 38.2869 145.264 37.8054C145.687 37.3174 146.201 36.9399 146.807 36.6731C147.418 36.3998 148.108 36.2632 148.876 36.2632C149.65 36.2632 150.34 36.3998 150.945 36.6731C151.557 36.9399 152.074 37.3174 152.497 37.8054C152.92 38.2869 153.242 38.8563 153.463 39.5135C153.685 40.1642 153.795 40.8703 153.795 41.6316V41.8561C153.795 42.6174 153.685 43.3235 153.463 43.9742C153.242 44.6249 152.92 45.1943 152.497 45.6823C152.074 46.1638 151.56 46.5413 150.955 46.8146C150.35 47.0813 149.663 47.2147 148.895 47.2147C148.121 47.2147 147.428 47.0813 146.816 46.8146C146.211 46.5413 145.697 46.1638 145.274 45.6823C144.851 45.1943 144.529 44.6249 144.308 43.9742C144.087 43.3235 143.976 42.6174 143.976 41.8561ZM146.328 41.6316V41.8561C146.328 42.3311 146.377 42.7801 146.475 43.2031C146.572 43.626 146.725 43.997 146.933 44.3158C147.142 44.6347 147.408 44.8852 147.734 45.0674C148.059 45.2496 148.446 45.3407 148.895 45.3407C149.331 45.3407 149.709 45.2496 150.028 45.0674C150.353 44.8852 150.62 44.6347 150.828 44.3158C151.036 43.997 151.189 43.626 151.287 43.2031C151.391 42.7801 151.443 42.3311 151.443 41.8561V41.6316C151.443 41.1631 151.391 40.7206 151.287 40.3041C151.189 39.8812 151.033 39.507 150.818 39.1817C150.61 38.8563 150.343 38.6025 150.018 38.4203C149.699 38.2316 149.318 38.1373 148.876 38.1373C148.433 38.1373 148.049 38.2316 147.724 38.4203C147.405 38.6025 147.142 38.8563 146.933 39.1817C146.725 39.507 146.572 39.8812 146.475 40.3041C146.377 40.7206 146.328 41.1631 146.328 41.6316ZM158.129 38.4691V47.0195H155.777V36.4584H158.022L158.129 38.4691ZM161.36 36.3901L161.34 38.5765C161.197 38.5505 161.041 38.5309 160.872 38.5179C160.709 38.5049 160.546 38.4984 160.384 38.4984C159.98 38.4984 159.626 38.557 159.32 38.6741C159.014 38.7847 158.757 38.9474 158.549 39.1621C158.347 39.3704 158.191 39.6241 158.08 39.9235C157.97 40.2228 157.905 40.5579 157.885 40.9288L157.348 40.9679C157.348 40.3041 157.413 39.6892 157.543 39.1231C157.674 38.557 157.869 38.0592 158.129 37.6297C158.396 37.2002 158.728 36.8651 159.125 36.6243C159.528 36.3836 159.993 36.2632 160.52 36.2632C160.664 36.2632 160.816 36.2762 160.979 36.3022C161.148 36.3283 161.275 36.3575 161.36 36.3901ZM167.294 47.2147C166.513 47.2147 165.807 47.0879 165.176 46.8341C164.552 46.5738 164.018 46.2126 163.575 45.7506C163.14 45.2886 162.804 44.7453 162.57 44.1206C162.336 43.4959 162.219 42.8224 162.219 42.1001V41.7097C162.219 40.8833 162.339 40.135 162.58 39.4647C162.821 38.7945 163.156 38.2218 163.585 37.7468C164.015 37.2653 164.522 36.8976 165.108 36.6439C165.694 36.3901 166.328 36.2632 167.011 36.2632C167.766 36.2632 168.427 36.3901 168.993 36.6439C169.559 36.8976 170.027 37.2555 170.398 37.7175C170.776 38.173 171.055 38.7164 171.238 39.3476C171.426 39.9788 171.521 40.675 171.521 41.4364V42.4417H163.361V40.7531H169.198V40.5677C169.185 40.1447 169.1 39.7478 168.944 39.3769C168.794 39.006 168.563 38.7066 168.251 38.4789C167.939 38.2511 167.522 38.1373 167.002 38.1373C166.611 38.1373 166.263 38.2218 165.957 38.391C165.658 38.5537 165.407 38.7912 165.206 39.1036C165.004 39.4159 164.848 39.7933 164.737 40.2358C164.633 40.6718 164.581 41.1631 164.581 41.7097V42.1001C164.581 42.5621 164.643 42.9916 164.766 43.3885C164.896 43.779 165.085 44.1206 165.332 44.4134C165.58 44.7062 165.879 44.9372 166.23 45.1064C166.582 45.2691 166.982 45.3504 167.431 45.3504C167.997 45.3504 168.501 45.2366 168.944 45.0088C169.386 44.7811 169.77 44.459 170.096 44.0425L171.335 45.2431C171.108 45.5749 170.811 45.8938 170.447 46.1996C170.083 46.499 169.637 46.743 169.11 46.9317C168.589 47.1204 167.984 47.2147 167.294 47.2147Z" fill="white"/>
<path d="M56.2897 27.0694C49.4608 34.4731 54.2532 40.4331 57.5092 42.4938C56.8995 46.1956 55.0703 48.6635 52.6314 51.7484C50.1925 54.8333 45.9244 53.5993 44.0952 52.3654C43.4365 52.0172 42.7043 51.8354 41.9612 51.8354C41.218 51.8354 40.4858 52.0172 39.8271 52.3654C37.3882 54.8333 33.1201 52.5752 31.2909 51.1314C24.584 46.1956 23.3645 30.7713 28.2423 25.2185C32.1446 20.7763 38.8028 22.9604 41.6563 24.6015C49.4608 19.6657 54.6557 24.1943 56.2897 27.0694Z" fill="url(#paint0_linear_1325_52031)"/>
<path d="M41.0469 22.7509C43.6931 23.1581 48.9733 21.8871 48.9733 13.4962C46.3393 13.2865 41.0469 14.8536 41.0469 22.7509Z" fill="url(#paint1_linear_1325_52031)"/>
<defs>
<linearGradient id="paint0_linear_1325_52031" x1="19.2074" y1="5.50667" x2="66.092" y2="3.94517" gradientUnits="userSpaceOnUse">
<stop stop-color="#32A071"/>
<stop offset="0.572441" stop-color="#15CF74"/>
<stop offset="0.907388" stop-color="#2DA771"/>
</linearGradient>
<linearGradient id="paint1_linear_1325_52031" x1="39.5547" y1="8.43277" x2="51.088" y2="8.11641" gradientUnits="userSpaceOnUse">
<stop stop-color="#32A071"/>
<stop offset="0.572441" stop-color="#15CF74"/>
<stop offset="0.907388" stop-color="#2DA771"/>
</linearGradient>
</defs>
</svg>
