<svg width="235" height="74" viewBox="0 0 235 74" fill="none" xmlns="http://www.w3.org/2000/svg">
<path d="M225.171 0.613281H10.694C5.26573 0.613281 0.865234 5.0661 0.865234 10.5589V63.4707C0.865234 68.9636 5.26573 73.4164 10.694 73.4164H225.171C230.6 73.4164 235 68.9636 235 63.4707V10.5589C235 5.0661 230.6 0.613281 225.171 0.613281Z" fill="#2E2E2E"/>
<path d="M22.8859 17.2793C22.3518 17.877 22.0793 18.6454 22.1242 19.4271V53.3635C22.069 54.1465 22.3428 54.9185 22.8859 55.5114L22.9994 55.6341L43.0805 36.6254V36.1652L22.9994 17.1719L22.8859 17.2793Z" fill="url(#paint0_linear_1325_52009)"/>
<path d="M49.7252 42.9618L43.0801 36.6256V36.1653L49.7252 29.8291L49.871 29.9212L57.8289 34.1862C60.098 35.3982 60.098 37.3927 57.8289 38.62L49.9034 42.8851L49.7252 42.9618Z" fill="url(#paint1_linear_1325_52009)"/>
<path d="M49.9208 42.8698L43.0813 36.3955L22.8867 55.5116C23.3447 55.8974 23.9309 56.1194 24.5437 56.1391C25.1565 56.1587 25.7572 55.9747 26.2417 55.6189L49.9208 42.8698Z" fill="#6C656B"/>
<path d="M49.9208 29.9215L26.2417 17.1876C25.7603 16.827 25.1601 16.6385 24.5465 16.6553C23.9329 16.6722 23.3452 16.8933 22.8867 17.2797L43.0813 36.3957L49.9208 29.9215Z" fill="#6C656B"/>
<path opacity="0.2" d="M49.7263 42.7314L26.2417 55.3885C25.7748 55.7221 25.2058 55.9025 24.6209 55.9025C24.036 55.9025 23.467 55.7221 23.0002 55.3885L22.8867 55.4959L23.0002 55.6187C23.467 55.9522 24.036 56.1326 24.6209 56.1326C25.2058 56.1326 25.7748 55.9522 26.2417 55.6187L49.9208 42.8695L49.7263 42.7314Z" fill="#2E2E2E"/>
<path opacity="0.12" d="M22.8865 55.297C22.3659 54.6885 22.1108 53.9146 22.1734 53.1338V53.3639C22.1182 54.1469 22.392 54.9189 22.9351 55.5118L23.0486 55.4044L22.8865 55.297Z" fill="#2E2E2E"/>
<path opacity="0.12" d="M57.8303 38.39L49.7266 42.7317L49.8724 42.8698L57.8303 38.6047C58.3001 38.4167 58.7075 38.1123 59.0099 37.7235C59.3122 37.3347 59.4982 36.8759 59.5483 36.3955C59.447 36.8321 59.2387 37.24 58.9403 37.5865C58.6419 37.9329 58.2617 38.2081 57.8303 38.39Z" fill="#2E2E2E"/>
<path opacity="0.25" d="M26.2417 17.4029L57.8301 34.4018C58.2615 34.5836 58.6417 34.8589 58.9401 35.2053C59.2385 35.5517 59.4468 35.9597 59.5481 36.3962C59.4981 35.9158 59.312 35.457 59.0097 35.0682C58.7074 34.6795 58.2999 34.375 57.8301 34.187L26.2417 17.1881C23.9889 15.9608 22.125 16.9734 22.125 19.4281V19.6582C22.1736 17.2035 23.9889 16.1909 26.2417 17.4029Z" fill="#6C656B"/>
<path d="M93.1797 18.8281V21.9512C93.0742 22.1074 92.9062 22.2832 92.6758 22.4785C92.4453 22.6699 92.127 22.8379 91.7207 22.9824C91.3184 23.123 90.7988 23.1934 90.1621 23.1934C89.6426 23.1934 89.1641 23.1035 88.7266 22.9238C88.293 22.7402 87.916 22.4746 87.5957 22.127C87.2793 21.7754 87.0332 21.3496 86.8574 20.8496C86.6855 20.3457 86.5996 19.7754 86.5996 19.1387V18.4766C86.5996 17.8398 86.6738 17.2715 86.8223 16.7715C86.9746 16.2715 87.1973 15.8477 87.4902 15.5C87.7832 15.1484 88.1426 14.8828 88.5684 14.7031C88.9941 14.5195 89.4824 14.4277 90.0332 14.4277C90.6855 14.4277 91.2305 14.541 91.668 14.7676C92.1094 14.9902 92.4531 15.2988 92.6992 15.6934C92.9492 16.0879 93.1094 16.5371 93.1797 17.041H92.0488C91.998 16.7324 91.8965 16.4512 91.7441 16.1973C91.5957 15.9434 91.3828 15.7402 91.1055 15.5879C90.8281 15.4316 90.4707 15.3535 90.0332 15.3535C89.6387 15.3535 89.2969 15.4258 89.0078 15.5703C88.7188 15.7148 88.4805 15.9219 88.293 16.1914C88.1055 16.4609 87.9648 16.7871 87.8711 17.1699C87.7812 17.5527 87.7363 17.9844 87.7363 18.4648V19.1387C87.7363 19.6309 87.793 20.0703 87.9062 20.457C88.0234 20.8438 88.1895 21.1738 88.4043 21.4473C88.6191 21.7168 88.875 21.9219 89.1719 22.0625C89.4727 22.2031 89.8047 22.2734 90.168 22.2734C90.5703 22.2734 90.8965 22.2402 91.1465 22.1738C91.3965 22.1035 91.5918 22.0215 91.7324 21.9277C91.873 21.8301 91.9805 21.7383 92.0547 21.6523V19.7422H90.0801V18.8281H93.1797ZM100.475 22.1562V23.0762H95.957V22.1562H100.475ZM96.1855 14.5449V23.0762H95.0547V14.5449H96.1855ZM99.877 18.2129V19.1328H95.957V18.2129H99.877ZM100.416 14.5449V15.4707H95.957V14.5449H100.416ZM105.145 14.5449V23.0762H104.031V14.5449H105.145ZM107.887 14.5449V15.4707H101.295V14.5449H107.887ZM113.107 14.5449V23.0762H111.977V14.5449H113.107ZM118.141 14.5449V23.0762H117.027V14.5449H118.141ZM120.883 14.5449V15.4707H114.291V14.5449H120.883ZM131.459 18.541V19.0801C131.459 19.7207 131.379 20.2949 131.219 20.8027C131.059 21.3105 130.828 21.7422 130.527 22.0977C130.227 22.4531 129.865 22.7246 129.443 22.9121C129.025 23.0996 128.557 23.1934 128.037 23.1934C127.533 23.1934 127.07 23.0996 126.648 22.9121C126.23 22.7246 125.867 22.4531 125.559 22.0977C125.254 21.7422 125.018 21.3105 124.85 20.8027C124.682 20.2949 124.598 19.7207 124.598 19.0801V18.541C124.598 17.9004 124.68 17.3281 124.844 16.8242C125.012 16.3164 125.248 15.8848 125.553 15.5293C125.857 15.1699 126.219 14.8965 126.637 14.709C127.059 14.5215 127.521 14.4277 128.025 14.4277C128.545 14.4277 129.014 14.5215 129.432 14.709C129.854 14.8965 130.215 15.1699 130.516 15.5293C130.82 15.8848 131.053 16.3164 131.213 16.8242C131.377 17.3281 131.459 17.9004 131.459 18.541ZM130.34 19.0801V18.5293C130.34 18.0215 130.287 17.5723 130.182 17.1816C130.08 16.791 129.93 16.4629 129.73 16.1973C129.531 15.9316 129.287 15.7305 128.998 15.5938C128.713 15.457 128.389 15.3887 128.025 15.3887C127.674 15.3887 127.355 15.457 127.07 15.5938C126.789 15.7305 126.547 15.9316 126.344 16.1973C126.145 16.4629 125.99 16.791 125.881 17.1816C125.771 17.5723 125.717 18.0215 125.717 18.5293V19.0801C125.717 19.5918 125.771 20.0449 125.881 20.4395C125.99 20.8301 126.146 21.1602 126.35 21.4297C126.557 21.6953 126.801 21.8965 127.082 22.0332C127.367 22.1699 127.686 22.2383 128.037 22.2383C128.404 22.2383 128.73 22.1699 129.016 22.0332C129.301 21.8965 129.541 21.6953 129.736 21.4297C129.936 21.1602 130.086 20.8301 130.188 20.4395C130.289 20.0449 130.34 19.5918 130.34 19.0801ZM139.715 14.5449V23.0762H138.578L134.283 16.4961V23.0762H133.152V14.5449H134.283L138.596 21.1426V14.5449H139.715Z" fill="white"/>
<path d="M103.957 45.3686C104.002 46.4526 103.829 47.5346 103.447 48.5486C103.066 49.5627 102.484 50.4875 101.738 51.2668C100.912 52.1372 99.9139 52.8204 98.8082 53.2714C97.7025 53.7223 96.5148 53.9307 95.3236 53.8828C94.1252 53.8928 92.9371 53.6605 91.8286 53.1995C90.7202 52.7386 89.714 52.0583 88.8689 51.1986C88.0238 50.3388 87.3569 49.317 86.9073 48.193C86.4578 47.0689 86.2346 45.8653 86.2508 44.6529C86.2362 43.4414 86.4606 42.2392 86.9109 41.1166C87.3612 39.994 88.0284 38.9736 88.8733 38.1152C89.7182 37.2567 90.7239 36.5776 91.8315 36.1174C92.9391 35.6572 94.1263 35.4253 95.3236 35.4352C96.576 35.4202 97.8191 35.655 98.9819 36.1263C100.055 36.5441 101.016 37.212 101.787 38.0759L100.177 39.7047C99.614 39.0237 98.8935 38.4938 98.0795 38.1623C97.2121 37.7892 96.2783 37.6002 95.3358 37.607C94.4305 37.5822 93.5299 37.747 92.6905 38.091C91.8511 38.4349 91.0911 38.9507 90.458 39.606C89.1927 40.9771 88.4889 42.7831 88.4889 44.659C88.4889 46.535 89.1927 48.341 90.458 49.7121C91.0911 50.3673 91.8511 50.8831 92.6905 51.2271C93.5299 51.5711 94.4305 51.7359 95.3358 51.7111C96.9125 51.767 98.4555 51.2407 99.677 50.2303C100.26 49.7192 100.737 49.0961 101.08 48.3971C101.424 47.6982 101.626 46.9372 101.677 46.1583H95.3358V44.0482H103.799C103.886 44.4834 103.939 44.9249 103.957 45.3686Z" fill="white"/>
<path d="M105.492 47.504C105.465 46.6571 105.604 45.8131 105.901 45.0209C106.198 44.2287 106.648 43.5041 107.224 42.889C107.795 42.2934 108.483 41.8246 109.243 41.5124C110.003 41.2001 110.818 41.0512 111.638 41.0751C112.453 41.0495 113.264 41.1978 114.018 41.5103C114.772 41.8228 115.453 42.2926 116.016 42.889C116.598 43.5009 117.054 44.2244 117.355 45.0169C117.657 45.8095 117.798 46.6551 117.772 47.504C117.803 48.3533 117.663 49.2002 117.361 49.9933C117.059 50.7865 116.602 51.5096 116.016 52.119C115.455 52.7189 114.775 53.1918 114.021 53.5065C113.266 53.8213 112.454 53.9708 111.638 53.9452C110.817 53.9698 110 53.82 109.24 53.5055C108.48 53.1909 107.793 52.7186 107.224 52.119C106.646 51.5055 106.195 50.7811 105.897 49.9886C105.6 49.196 105.462 48.3512 105.492 47.504ZM107.736 47.504C107.708 48.0794 107.793 48.6547 107.985 49.1968C108.178 49.739 108.474 50.2372 108.858 50.6629C109.215 51.0449 109.645 51.3493 110.122 51.5572C110.599 51.7652 111.113 51.8725 111.632 51.8725C112.152 51.8725 112.666 51.7652 113.143 51.5572C113.62 51.3493 114.05 51.0449 114.407 50.6629C114.79 50.2372 115.087 49.739 115.279 49.1968C115.472 48.6547 115.557 48.0794 115.528 47.504C115.554 46.9344 115.469 46.3653 115.276 45.8295C115.083 45.2937 114.788 44.8018 114.407 44.3821C114.054 43.9935 113.625 43.6833 113.147 43.4712C112.67 43.259 112.154 43.1494 111.632 43.1494C111.111 43.1494 110.595 43.259 110.117 43.4712C109.64 43.6833 109.211 43.9935 108.858 44.3821C108.477 44.8018 108.181 45.2937 107.989 45.8295C107.796 46.3653 107.71 46.9344 107.736 47.504Z" fill="white"/>
<path d="M119.14 47.5037C119.09 45.794 119.713 44.1341 120.872 42.8887C121.443 42.2938 122.131 41.8254 122.891 41.5131C123.651 41.2009 124.466 41.0516 125.286 41.0748C126.102 41.0506 126.915 41.1994 127.671 41.5118C128.427 41.8242 129.11 42.2932 129.676 42.8887C130.258 43.5006 130.713 44.2241 131.015 45.0167C131.316 45.8092 131.458 46.6548 131.432 47.5037C131.463 48.3531 131.323 49.1999 131.021 49.993C130.719 50.7862 130.262 51.5093 129.676 52.1187C129.112 52.7183 128.43 53.1908 127.673 53.5055C126.917 53.8202 126.104 53.9699 125.286 53.9449C124.465 53.9688 123.648 53.8186 122.888 53.5041C122.128 53.1896 121.441 52.7177 120.872 52.1187C120.296 51.5032 119.847 50.7785 119.55 49.9864C119.252 49.1943 119.113 48.3505 119.14 47.5037ZM121.384 47.5037C121.334 48.6648 121.737 49.7993 122.506 50.6626C122.863 51.045 123.295 51.3495 123.773 51.5577C124.251 51.7658 124.766 51.8731 125.286 51.8731C125.806 51.8731 126.321 51.7658 126.799 51.5577C127.277 51.3495 127.709 51.045 128.066 50.6626C128.835 49.7993 129.238 48.6648 129.188 47.5037C129.234 46.3544 128.831 45.233 128.066 44.3818C127.712 43.9929 127.282 43.6825 126.804 43.4702C126.325 43.2579 125.809 43.1483 125.286 43.1483C124.763 43.1483 124.247 43.2579 123.768 43.4702C123.29 43.6825 122.86 43.9929 122.506 44.3818C121.741 45.233 121.338 46.3544 121.384 47.5037Z" fill="white"/>
<path d="M138.774 59.2136C138.139 59.2183 137.506 59.1311 136.896 58.9545C136.331 58.7909 135.793 58.5457 135.298 58.2265C134.833 57.9286 134.42 57.5531 134.079 57.1159C133.735 56.6908 133.47 56.2057 133.298 55.6845L135.42 54.7961C135.638 55.4801 136.065 56.0763 136.64 56.4989C137.253 56.9345 137.988 57.1594 138.737 57.1406C139.264 57.1747 139.791 57.0931 140.284 56.9014C140.777 56.7097 141.222 56.4125 141.591 56.03C142.302 55.1781 142.664 54.0832 142.603 52.9698V51.8099H142.505C142.077 52.4631 141.483 52.9875 140.786 53.3277C140.06 53.6991 139.257 53.8895 138.444 53.883C137.681 53.887 136.926 53.7237 136.232 53.4041C135.537 53.0846 134.919 52.6165 134.42 52.032C133.349 50.7528 132.762 49.1306 132.762 47.4541C132.762 45.7776 133.349 44.1554 134.42 42.8761C134.917 42.2881 135.534 41.8168 136.229 41.495C136.924 41.1732 137.68 41.0087 138.444 41.0129C139.257 41.0063 140.06 41.1967 140.786 41.5681C141.483 41.9083 142.077 42.4327 142.505 43.0859H142.603V41.4077H144.749V52.9698C144.796 53.8031 144.675 54.6374 144.395 55.4222C144.114 56.2069 143.678 56.9259 143.115 57.5355C142.542 58.0991 141.862 58.5386 141.115 58.8271C140.369 59.1157 139.572 59.2472 138.774 59.2136ZM138.847 51.8099C139.359 51.8237 139.868 51.7198 140.334 51.5061C140.801 51.2924 141.214 50.9744 141.542 50.576C142.262 49.6919 142.657 48.5816 142.657 47.4356C142.657 46.2896 142.262 45.1793 141.542 44.2952C141.213 43.8982 140.8 43.5811 140.333 43.3675C139.867 43.154 139.359 43.0493 138.847 43.0612C138.334 43.0527 137.825 43.1588 137.357 43.3721C136.889 43.5854 136.473 43.9006 136.14 44.2952C135.425 45.1774 135.035 46.2827 135.035 47.4232C135.035 48.5637 135.425 49.6691 136.14 50.5513C136.471 50.9504 136.886 51.2702 137.354 51.4878C137.822 51.7055 138.332 51.8155 138.847 51.8099Z" fill="white"/>
<path d="M149.759 35.8301V53.4879H147.516V35.8301H149.759Z" fill="white"/>
<path d="M157.734 53.8827C156.924 53.9085 156.117 53.759 155.368 53.444C154.62 53.1291 153.946 52.656 153.393 52.0564C152.274 50.8155 151.679 49.1817 151.734 47.5032C151.677 45.8133 152.272 44.1672 153.393 42.9129C153.941 42.3396 154.596 41.882 155.319 41.5665C156.043 41.251 156.822 41.0838 157.61 41.0746C158.398 41.0654 159.18 41.2144 159.911 41.513C160.642 41.8116 161.307 42.2538 161.868 42.8141C162.988 44.1714 163.551 45.9114 163.441 47.6759V47.9227H154.051C154.052 48.4585 154.161 48.9885 154.371 49.4806C154.58 49.9726 154.887 50.4166 155.271 50.7855C155.7 51.22 156.227 51.5433 156.806 51.7282C157.385 51.913 158 51.9539 158.598 51.8474C159.197 51.7408 159.761 51.49 160.243 51.1162C160.725 50.7423 161.111 50.2564 161.368 49.6996L163.368 50.6868C162.857 51.6785 162.085 52.5073 161.136 53.0806C160.104 53.678 158.921 53.9568 157.734 53.8827ZM154.173 45.9854H161.026C160.974 45.1823 160.611 44.4327 160.014 43.9C159.329 43.3321 158.46 43.0418 157.575 43.0856C156.779 43.0689 156.003 43.3452 155.393 43.863C154.765 44.4139 154.335 45.1606 154.173 45.9854Z" fill="white"/>
<path d="M177.014 53.8836C176.167 53.9014 175.329 53.7064 174.575 53.316C173.892 52.9786 173.314 52.4578 172.904 51.8106H172.806L172.904 53.4888V58.8194H170.66V41.4084H172.806V43.0866H172.904C173.314 42.4393 173.892 41.9186 174.575 41.5811C175.626 41.0388 176.825 40.8658 177.984 41.0892C179.144 41.3126 180.196 41.9198 180.977 42.8151C182.091 44.0648 182.693 45.6976 182.66 47.3807C182.702 49.0653 182.099 50.7013 180.977 51.9463C180.501 52.5477 179.898 53.0337 179.212 53.3689C178.526 53.7041 177.775 53.88 177.014 53.8836ZM176.648 51.8106C177.161 51.8192 177.67 51.713 178.138 51.4997C178.605 51.2864 179.021 50.9712 179.355 50.5766C180.069 49.6944 180.46 48.5891 180.46 47.4486C180.46 46.3081 180.069 45.2027 179.355 44.3205C179.012 43.9348 178.592 43.6263 178.124 43.4152C177.655 43.204 177.148 43.0949 176.636 43.0949C176.123 43.0949 175.616 43.204 175.147 43.4152C174.679 43.6263 174.259 43.9348 173.916 44.3205C173.187 45.1896 172.804 46.3029 172.843 47.4424C172.8 48.5939 173.182 49.7203 173.916 50.6013C174.257 50.992 174.678 51.3026 175.15 51.5115C175.622 51.7204 176.133 51.8225 176.648 51.8106Z" fill="white"/>
<path d="M186.746 35.8301V53.4879H184.502V35.8301H186.746Z" fill="white"/>
<path d="M193.892 41.0127C195.32 40.9315 196.723 41.4137 197.806 42.3577C198.297 42.8324 198.68 43.4093 198.928 44.0485C199.177 44.6877 199.285 45.3739 199.245 46.0596V53.4633H197.099V51.8098H197.001C196.62 52.4447 196.082 52.9691 195.441 53.3322C194.8 53.6954 194.078 53.8851 193.343 53.8828C192.127 53.9097 190.946 53.4687 190.038 52.6489C189.613 52.2867 189.272 51.8328 189.042 51.3204C188.812 50.808 188.699 50.2501 188.709 49.6874C188.689 49.1124 188.806 48.541 189.051 48.0213C189.295 47.5016 189.658 47.0489 190.112 46.7012C191.199 45.9115 192.519 45.5198 193.855 45.5907C194.994 45.5451 196.124 45.8002 197.136 46.3311V45.8128C197.139 45.4289 197.057 45.0491 196.897 44.7011C196.737 44.3531 196.502 44.0458 196.209 43.8015C195.615 43.2668 194.845 42.9763 194.05 42.9871C193.461 42.9721 192.878 43.1107 192.357 43.3894C191.836 43.6682 191.395 44.0778 191.075 44.5789L189.099 43.3449C189.638 42.5779 190.36 41.9616 191.199 41.5537C192.037 41.1459 192.963 40.9597 193.892 41.0127ZM190.99 49.7861C190.987 50.0752 191.053 50.3607 191.183 50.6184C191.312 50.8762 191.501 51.0986 191.733 51.2669C192.229 51.6633 192.846 51.8727 193.477 51.8592C193.945 51.8603 194.408 51.7671 194.839 51.5849C195.27 51.4026 195.661 51.1351 195.989 50.798C196.337 50.4898 196.615 50.1104 196.807 49.6849C196.998 49.2594 197.098 48.7975 197.099 48.3301C196.249 47.726 195.222 47.4303 194.185 47.491C193.374 47.4605 192.574 47.694 191.904 48.1573C191.631 48.3318 191.405 48.5717 191.245 48.8558C191.086 49.1399 190.998 49.4595 190.99 49.7861Z" fill="white"/>
<path d="M212.22 41.4082L204.733 58.8193H202.416L205.196 52.7235L200.318 41.4082H202.757L206.318 50.0459L209.781 41.4082H212.22Z" fill="white"/>
<defs>
<linearGradient id="paint0_linear_1325_52009" x1="18.1709" y1="-3.60916" x2="48.6867" y2="-4.14668" gradientUnits="userSpaceOnUse">
<stop stop-color="#32A071"/>
<stop offset="0.572441" stop-color="#15CF74"/>
<stop offset="0.907388" stop-color="#2DA771"/>
</linearGradient>
<linearGradient id="paint1_linear_1325_52009" x1="39.9833" y1="22.7335" x2="63.8983" y2="21.7654" gradientUnits="userSpaceOnUse">
<stop stop-color="#32A071"/>
<stop offset="0.572441" stop-color="#15CF74"/>
<stop offset="0.907388" stop-color="#2DA771"/>
</linearGradient>
</defs>
</svg>
